<svg width="40" height="40" viewBox="0 0 40 40" fill="none" xmlns="http://www.w3.org/2000/svg">
<path d="M5 10H8.33333M8.33333 10H35M8.33333 10V33.3333C8.33333 34.2174 8.68452 35.0652 9.30964 35.6904C9.93477 36.3155 10.7826 36.6667 11.6667 36.6667H28.3333C29.2174 36.6667 30.0652 36.3155 30.6904 35.6904C31.3155 35.0652 31.6667 34.2174 31.6667 33.3333V10M13.3333 10V6.66668C13.3333 5.78262 13.6845 4.93478 14.3096 4.30965C14.9348 3.68453 15.7826 3.33334 16.6667 3.33334H23.3333C24.2174 3.33334 25.0652 3.68453 25.6904 4.30965C26.3155 4.93478 26.6667 5.78262 26.6667 6.66668V10M16.6667 18.3333V28.3333M23.3333 18.3333V28.3333" stroke="#B6B7E9" stroke-width="3" stroke-linecap="round" stroke-linejoin="round"/>
</svg>
