<svg width="35" height="35" viewBox="0 0 35 35" fill="none" xmlns="http://www.w3.org/2000/svg">
<path d="M11.667 26.2501L17.5003 21.8022L23.3337 26.2501L21.1462 19.0313L26.9795 14.8751H19.8337L17.5003 7.29175L15.167 14.8751H8.02116L13.8545 19.0313L11.667 26.2501ZM17.5003 32.0834C15.483 32.0834 13.5871 31.7006 11.8128 30.935C10.0385 30.1694 8.49512 29.1303 7.18262 27.8178C5.87012 26.5053 4.83105 24.9619 4.06543 23.1876C3.2998 21.4133 2.91699 19.5174 2.91699 17.5001C2.91699 15.4827 3.2998 13.5869 4.06543 11.8126C4.83105 10.0383 5.87012 8.49487 7.18262 7.18237C8.49512 5.86987 10.0385 4.83081 11.8128 4.06519C13.5871 3.29956 15.483 2.91675 17.5003 2.91675C19.5177 2.91675 21.4135 3.29956 23.1878 4.06519C24.9621 4.83081 26.5055 5.86987 27.818 7.18237C29.1305 8.49487 30.1696 10.0383 30.9352 11.8126C31.7008 13.5869 32.0837 15.4827 32.0837 17.5001C32.0837 19.5174 31.7008 21.4133 30.9352 23.1876C30.1696 24.9619 29.1305 26.5053 27.818 27.8178C26.5055 29.1303 24.9621 30.1694 23.1878 30.935C21.4135 31.7006 19.5177 32.0834 17.5003 32.0834Z" fill="#1D1B20"/>
</svg>
