<svg width="32" height="32" viewBox="0 0 32 32" fill="none" xmlns="http://www.w3.org/2000/svg">
<path d="M18.3067 27.9998C18.0723 28.4039 17.7358 28.7394 17.331 28.9725C16.9261 29.2057 16.4672 29.3284 16 29.3284C15.5328 29.3284 15.0739 29.2057 14.669 28.9725C14.2642 28.7394 13.9277 28.4039 13.6933 27.9998M24 10.6665C24 8.54477 23.1571 6.50994 21.6569 5.00965C20.1566 3.50936 18.1217 2.6665 16 2.6665C13.8783 2.6665 11.8434 3.50936 10.3431 5.00965C8.84286 6.50994 8 8.54477 8 10.6665C8 19.9998 4 22.6665 4 22.6665H28C28 22.6665 24 19.9998 24 10.6665Z" stroke="#1E1E1E" stroke-width="4" stroke-linecap="round" stroke-linejoin="round"/>
</svg>
