<svg width="45" height="45" viewBox="0 0 45 45" fill="none" xmlns="http://www.w3.org/2000/svg">
<circle cx="22.5" cy="22.5" r="22.5" fill="#B6B7E9"/>
<path d="M23 22C21.625 22 20.4479 21.5104 19.4688 20.5313C18.4896 19.5521 18 18.375 18 17C18 15.625 18.4896 14.4479 19.4688 13.4688C20.4479 12.4896 21.625 12 23 12C24.375 12 25.5521 12.4896 26.5312 13.4688C27.5104 14.4479 28 15.625 28 17C28 18.375 27.5104 19.5521 26.5312 20.5313C25.5521 21.5104 24.375 22 23 22ZM13 32V28.5C13 27.7917 13.1823 27.1406 13.5469 26.5469C13.9115 25.9531 14.3958 25.5 15 25.1875C16.2917 24.5417 17.6042 24.0573 18.9375 23.7344C20.2708 23.4115 21.625 23.25 23 23.25C24.375 23.25 25.7292 23.4115 27.0625 23.7344C28.3958 24.0573 29.7083 24.5417 31 25.1875C31.6042 25.5 32.0885 25.9531 32.4531 26.5469C32.8177 27.1406 33 27.7917 33 28.5V32H13ZM15.5 29.5H30.5V28.5C30.5 28.2708 30.4427 28.0625 30.3281 27.875C30.2135 27.6875 30.0625 27.5417 29.875 27.4375C28.75 26.875 27.6146 26.4531 26.4688 26.1719C25.3229 25.8906 24.1667 25.75 23 25.75C21.8333 25.75 20.6771 25.8906 19.5312 26.1719C18.3854 26.4531 17.25 26.875 16.125 27.4375C15.9375 27.5417 15.7865 27.6875 15.6719 27.875C15.5573 28.0625 15.5 28.2708 15.5 28.5V29.5ZM23 19.5C23.6875 19.5 24.276 19.2552 24.7656 18.7656C25.2552 18.276 25.5 17.6875 25.5 17C25.5 16.3125 25.2552 15.724 24.7656 15.2344C24.276 14.7448 23.6875 14.5 23 14.5C22.3125 14.5 21.724 14.7448 21.2344 15.2344C20.7448 15.724 20.5 16.3125 20.5 17C20.5 17.6875 20.7448 18.276 21.2344 18.7656C21.724 19.2552 22.3125 19.5 23 19.5Z" fill="#1D1B20"/>
</svg>
